<svg width="15" height="15" viewBox="0 0 15 15" fill="none" xmlns="http://www.w3.org/2000/svg">
<path d="M13.125 7.96875H8.4375C8.18897 7.96912 7.95073 8.06801 7.775 8.24375C7.59926 8.41948 7.50037 8.65772 7.5 8.90625V11.7188C7.50037 11.9673 7.59926 12.2055 7.775 12.3813C7.95073 12.557 8.18897 12.6559 8.4375 12.6562H10.3125V11.7188H8.4375V8.90625H13.125V11.7188H11.9367L10.7208 13.5422L11.5008 14.0625L12.4383 12.6562H13.125C13.3735 12.6559 13.6118 12.557 13.7875 12.3813C13.9632 12.2055 14.0621 11.9673 14.0625 11.7188V8.90625C14.0621 8.65772 13.9632 8.41948 13.7875 8.24375C13.6118 8.06801 13.3735 7.96912 13.125 7.96875ZM4.06266 11.3011L4.46625 10.897C4.52023 10.8428 4.589 10.8057 4.66395 10.7904C4.7389 10.775 4.81672 10.7821 4.88766 10.8108L5.37984 11.0077C5.45233 11.0365 5.51446 11.0865 5.55818 11.1511C5.60189 11.2157 5.62517 11.292 5.625 11.37V12.2644C5.62514 12.3176 5.61442 12.3702 5.5935 12.4191C5.57257 12.468 5.54187 12.5121 5.50329 12.5487C5.46471 12.5853 5.41906 12.6136 5.36913 12.632C5.31921 12.6503 5.26607 12.6582 5.21297 12.6553C1.76578 12.4411 1.06922 9.52125 0.940313 8.40281C0.9341 8.34818 0.939511 8.29285 0.956189 8.24045C0.972868 8.18806 1.00044 8.13978 1.03709 8.09879C1.07374 8.0578 1.11865 8.02503 1.16886 8.00261C1.21907 7.9802 1.27345 7.96866 1.32844 7.96875H2.20688C2.28502 7.96852 2.36143 7.99183 2.42614 8.03564C2.49086 8.07945 2.54088 8.14173 2.56969 8.21438L2.76656 8.70656C2.79511 8.77744 2.80216 8.85516 2.78682 8.93002C2.77148 9.00488 2.73444 9.07356 2.68031 9.1275L2.27625 9.53109C2.34663 9.97786 2.55783 10.3905 2.87907 10.7089C3.2003 11.0272 3.61528 11.2347 4.06266 11.3011ZM9.84375 4.21875H13.125V5.15625H9.84375V4.21875ZM9.84375 2.34375H14.0625V3.28125H9.84375V2.34375ZM7.96875 2.8125L6.5625 3.84375V2.8125C6.5625 2.56386 6.46373 2.3254 6.28791 2.14959C6.1121 1.97377 5.87364 1.875 5.625 1.875H1.875C1.62636 1.875 1.3879 1.97377 1.21209 2.14959C1.03627 2.3254 0.9375 2.56386 0.9375 2.8125V5.625C0.9375 5.87364 1.03627 6.1121 1.21209 6.28791C1.3879 6.46373 1.62636 6.5625 1.875 6.5625H5.625C5.87364 6.5625 6.1121 6.46373 6.28791 6.28791C6.46373 6.1121 6.5625 5.87364 6.5625 5.625V4.59375L7.96875 5.625V2.8125ZM1.875 5.625V2.8125H5.625V5.625H1.875Z" fill="white"/>
</svg>
