<svg width="24" height="24" viewBox="0 0 24 24" fill="none" xmlns="http://www.w3.org/2000/svg">
<path d="M14.2127 5.1804C14.4945 5.44497 14.7067 5.76669 14.8327 6.12037L15.2386 7.28033C15.2722 7.37007 15.335 7.44786 15.4182 7.5029C15.5014 7.55795 15.6009 7.58752 15.703 7.58752C15.8051 7.58752 15.9047 7.55795 15.9879 7.5029C16.0711 7.44786 16.1338 7.37007 16.1674 7.28033L16.5733 6.12037C16.6996 5.76758 16.9124 5.44703 17.1948 5.18415C17.4773 4.92127 17.8217 4.7233 18.2007 4.60594L19.448 4.22871C19.5441 4.19711 19.6272 4.13855 19.6861 4.06111C19.7449 3.98368 19.7765 3.89116 19.7765 3.79631C19.7765 3.70146 19.7449 3.60895 19.6861 3.53151C19.6272 3.45407 19.5441 3.39552 19.448 3.36391L19.4228 3.3584L18.1762 2.98117C17.7971 2.8639 17.4526 2.66597 17.17 2.40309C16.8874 2.1402 16.6745 1.8196 16.5482 1.46674L16.143 0.306778C16.1092 0.217111 16.0463 0.139431 15.9631 0.0844746C15.8798 0.0295183 15.7803 0 15.6782 0C15.5761 0 15.4766 0.0295183 15.3933 0.0844746C15.3101 0.139431 15.2472 0.217111 15.2134 0.306778L14.8083 1.46674L14.7979 1.4957C14.6711 1.83969 14.4618 2.15226 14.1859 2.40966C13.9099 2.66705 13.5746 2.86251 13.2054 2.98117L11.958 3.3584C11.862 3.39 11.7788 3.44855 11.72 3.52599C11.6612 3.60343 11.6296 3.69595 11.6296 3.7908C11.6296 3.88564 11.6612 3.97816 11.72 4.0556C11.7788 4.13304 11.862 4.19159 11.958 4.22319L13.2054 4.59973C13.5854 4.71766 13.9305 4.91696 14.2127 5.1804ZM21.1257 8.52304L21.8057 8.72855L21.8198 8.73131C21.8724 8.74832 21.918 8.78017 21.9503 8.82243C21.9826 8.8647 22 8.91529 22 8.96717C22 9.01904 21.9826 9.06963 21.9503 9.1119C21.918 9.15417 21.8724 9.18602 21.8198 9.20302L21.139 9.40922C20.9327 9.47356 20.7451 9.58159 20.5911 9.72483C20.4371 9.86806 20.321 10.0426 20.2517 10.2347L20.0302 10.8678C20.0116 10.9165 19.9773 10.9586 19.9319 10.9884C19.8866 11.0182 19.8324 11.0342 19.7769 11.0342C19.7214 11.0342 19.6672 11.0182 19.6219 10.9884C19.5765 10.9586 19.5422 10.9165 19.5236 10.8678L19.3021 10.2347C19.2338 10.0417 19.118 9.86623 18.964 9.7223C18.8099 9.57837 18.6218 9.46998 18.4147 9.40577L17.734 9.20026C17.6814 9.18326 17.6358 9.15141 17.6034 9.10914C17.5711 9.06687 17.5538 9.01628 17.5538 8.96441C17.5538 8.91253 17.5711 8.86195 17.6034 8.81968C17.6358 8.77741 17.6814 8.74556 17.734 8.72855L18.4147 8.52236C18.6187 8.45639 18.8036 8.34763 18.9551 8.20449C19.1067 8.06135 19.2208 7.88766 19.2888 7.69687L19.5102 7.06378C19.5288 7.01509 19.5632 6.97295 19.6085 6.94315C19.6539 6.91336 19.708 6.89736 19.7636 6.89736C19.8191 6.89736 19.8732 6.91336 19.9186 6.94315C19.9639 6.97295 19.9983 7.01509 20.0169 7.06378L20.2376 7.69687C20.3064 7.88931 20.4226 8.06415 20.5768 8.20745C20.7309 8.35076 20.9189 8.45928 21.1257 8.52304ZM10.5181 1.37984C11.4699 1.37984 12.3847 1.52467 13.2402 1.79362C13.12 1.87724 12.9862 1.94243 12.8439 1.98672L11.6292 2.37291C11.2277 2.49409 10.8935 2.7574 10.6988 3.10599L10.5181 3.10392C9.23407 3.10407 7.97741 3.44948 6.89916 4.09862C5.82092 4.74776 4.96697 5.67302 4.43996 6.76317C3.91295 7.85333 3.73531 9.062 3.92839 10.2439C4.12147 11.4258 4.67705 12.5306 5.52835 13.4256C6.37966 14.3206 7.49045 14.9676 8.72724 15.2889C9.96402 15.6102 11.2741 15.5921 12.5002 15.2368C13.7262 14.8815 14.8159 14.2041 15.6383 13.2861C16.4608 12.368 16.9809 11.2483 17.1363 10.0616C17.2084 10.0998 17.2837 10.132 17.3622 10.1582L18.1029 10.3719C18.1424 10.389 18.177 10.4119 18.2066 10.4409C18.2394 10.4685 18.2626 10.5045 18.2733 10.5444L18.4955 11.1719C18.5449 11.3016 18.6123 11.4211 18.6977 11.5305C18.384 12.5305 17.8617 13.4632 17.1607 14.2753L21.7286 18.5282C21.9023 18.6899 21.9999 18.9092 21.9999 19.1378C21.9999 19.3665 21.9023 19.5858 21.7286 19.7475C21.555 19.9092 21.3195 20 21.0739 20C20.8283 20 20.5927 19.9092 20.4191 19.7475L15.8519 15.4945C14.3409 16.6277 12.4583 17.2443 10.5181 17.2414C5.81388 17.2414 2 13.6905 2 9.3106C2 4.93076 5.81388 1.37984 10.5181 1.37984Z" fill="#A2A2A2"/>
</svg>
