<svg width="24" height="24" viewBox="0 0 24 24" fill="none" xmlns="http://www.w3.org/2000/svg">
<path d="M12 2.5C11.7079 2.49976 11.4221 2.5848 11.1777 2.74467C10.9333 2.90455 10.7408 3.13231 10.624 3.4L10.362 4H4.5V20H19.5V4H13.638L13.376 3.4C13.2592 3.13231 13.0667 2.90455 12.8223 2.74467C12.5779 2.5848 12.2921 2.49976 12 2.5ZM9.128 2C9.45038 1.53702 9.8799 1.15882 10.38 0.897647C10.88 0.636469 11.4358 0.500045 12 0.5C13.19 0.5 14.24 1.094 14.872 2H21.5V22H2.5V2H9.128ZM17.658 9.586L10.586 16.656L6.344 12.414L7.758 11L10.586 13.829L16.243 8.172L17.658 9.586Z" fill="#A2A2A2"/>
</svg>
