<svg width="24" height="24" viewBox="0 0 24 24" fill="none" xmlns="http://www.w3.org/2000/svg">
<path d="M10 15.5C10.1571 15.5 10.2656 15.5478 10.3594 15.6416C10.4531 15.7353 10.5004 15.8433 10.5 15.999V20C10.5 20.1571 10.4522 20.2656 10.3584 20.3594C10.2647 20.4531 10.1567 20.5004 10.001 20.5H4C3.84307 20.5 3.73538 20.4523 3.64258 20.3594C3.57221 20.2888 3.52685 20.2096 3.50879 20.1084L3.5 19.999V16C3.5 15.8431 3.54766 15.7354 3.64062 15.6426C3.71123 15.5722 3.79038 15.5268 3.8916 15.5088L4.00098 15.5H10ZM20 11.5C20.1571 11.5 20.2656 11.5478 20.3594 11.6416C20.4531 11.7353 20.5004 11.8433 20.5 11.999V20C20.5 20.1571 20.4522 20.2656 20.3584 20.3594C20.2647 20.4531 20.1567 20.5004 20.001 20.5H14C13.8431 20.5 13.7354 20.4523 13.6426 20.3594C13.5722 20.2888 13.5268 20.2096 13.5088 20.1084L13.5 19.999V12C13.5 11.8431 13.5477 11.7354 13.6406 11.6426C13.7112 11.5722 13.7904 11.5268 13.8916 11.5088L14.001 11.5H20ZM10 3.5C10.1571 3.5 10.2656 3.54783 10.3594 3.6416C10.4531 3.73532 10.5004 3.84328 10.5 3.99902V12C10.5 12.1571 10.4522 12.2656 10.3584 12.3594C10.2647 12.4531 10.1567 12.5004 10.001 12.5H4C3.84307 12.5 3.73538 12.4523 3.64258 12.3594C3.57221 12.2888 3.52685 12.2096 3.50879 12.1084L3.5 11.999V4C3.5 3.84307 3.54766 3.73538 3.64062 3.64258C3.71123 3.57221 3.79038 3.52685 3.8916 3.50879L4.00098 3.5H10ZM20 3.5C20.1571 3.5 20.2656 3.54783 20.3594 3.6416C20.4531 3.73533 20.5004 3.84329 20.5 3.99902V8C20.5 8.15714 20.4522 8.26559 20.3584 8.35938C20.2647 8.4531 20.1567 8.50037 20.001 8.5H14C13.8431 8.5 13.7354 8.45234 13.6426 8.35938C13.5722 8.28877 13.5268 8.20962 13.5088 8.1084L13.5 7.99902V4C13.5 3.84307 13.5477 3.73538 13.6406 3.64258C13.7112 3.57221 13.7904 3.52685 13.8916 3.50879L14.001 3.5H20Z" stroke="#A2A2A2"/>
</svg>
