<svg width="24" height="24" viewBox="0 0 24 24" fill="none" xmlns="http://www.w3.org/2000/svg">
<path d="M12 10.5C10.9833 10.5 10.0083 10.1049 9.28938 9.40165C8.57049 8.69839 8.16663 7.74456 8.16663 6.75C8.16663 5.75544 8.57049 4.80161 9.28938 4.09835C10.0083 3.39509 10.9833 3 12 3C13.0166 3 13.9916 3.39509 14.7105 4.09835C15.4294 4.80161 15.8333 5.75544 15.8333 6.75C15.8333 7.74456 15.4294 8.69839 14.7105 9.40165C13.9916 10.1049 13.0166 10.5 12 10.5ZM12 4.5C10.7273 4.5 9.69996 5.505 9.69996 6.75C9.69996 7.995 10.7273 9 12 9C13.2726 9 14.3 7.995 14.3 6.75C14.3 5.505 13.2726 4.5 12 4.5Z" fill="#A2A2A2"/>
<path d="M21.2 16.5C20.7707 16.5 20.4333 16.17 20.4333 15.75C20.4333 15.33 20.7707 15 21.2 15C21.6293 15 21.9667 14.67 21.9667 14.25C21.9667 13.2554 21.5628 12.3016 20.8439 11.5983C20.125 10.8951 19.15 10.5 18.1333 10.5H16.6C16.1707 10.5 15.8333 10.17 15.8333 9.75C15.8333 9.33 16.1707 9 16.6 9C17.8727 9 18.9 7.995 18.9 6.75C18.9 5.505 17.8727 4.5 16.6 4.5C16.1707 4.5 15.8333 4.17 15.8333 3.75C15.8333 3.33 16.1707 3 16.6 3C17.6167 3 18.5917 3.39509 19.3106 4.09835C20.0295 4.80161 20.4333 5.75544 20.4333 6.75C20.4333 7.68 20.096 8.52 19.5133 9.18C21.798 9.78 23.5 11.82 23.5 14.25C23.5 15.495 22.4727 16.5 21.2 16.5ZM2.8 16.5C1.52733 16.5 0.5 15.495 0.5 14.25C0.5 11.82 2.18667 9.78 4.48667 9.18C3.91933 8.52 3.56667 7.68 3.56667 6.75C3.56667 5.75544 3.97053 4.80161 4.68942 4.09835C5.40831 3.39509 6.38334 3 7.4 3C7.82933 3 8.16667 3.33 8.16667 3.75C8.16667 4.17 7.82933 4.5 7.4 4.5C6.12733 4.5 5.1 5.505 5.1 6.75C5.1 7.995 6.12733 9 7.4 9C7.82933 9 8.16667 9.33 8.16667 9.75C8.16667 10.17 7.82933 10.5 7.4 10.5H5.86667C4.85 10.5 3.87498 10.8951 3.15609 11.5983C2.4372 12.3016 2.03333 13.2554 2.03333 14.25C2.03333 14.67 2.37067 15 2.8 15C3.22933 15 3.56667 15.33 3.56667 15.75C3.56667 16.17 3.22933 16.5 2.8 16.5ZM16.6 21H7.4C6.12733 21 5.1 19.995 5.1 18.75V17.25C5.1 14.355 7.50733 12 10.4667 12H13.5333C16.4927 12 18.9 14.355 18.9 17.25V18.75C18.9 19.995 17.8727 21 16.6 21ZM10.4667 13.5C9.45 13.5 8.47498 13.8951 7.75609 14.5983C7.0372 15.3016 6.63333 16.2554 6.63333 17.25V18.75C6.63333 19.17 6.97067 19.5 7.4 19.5H16.6C17.0293 19.5 17.3667 19.17 17.3667 18.75V17.25C17.3667 16.2554 16.9628 15.3016 16.2439 14.5983C15.525 13.8951 14.55 13.5 13.5333 13.5H10.4667Z" fill="#A2A2A2"/>
</svg>
