<svg width="24" height="24" viewBox="0 0 24 24" fill="none" xmlns="http://www.w3.org/2000/svg">
<path d="M1.33334 21C0.95556 21 0.639116 20.872 0.384005 20.616C0.128894 20.36 0.000893486 20.0435 4.59769e-06 19.6666C-0.000884291 19.2898 0.127116 18.9733 0.384005 18.7173C0.640893 18.4613 0.957338 18.3333 1.33334 18.3333H22.6667C23.0444 18.3333 23.3613 18.4613 23.6173 18.7173C23.8733 18.9733 24.0009 19.2898 24 19.6666C23.9991 20.0435 23.8711 20.3604 23.616 20.6173C23.3609 20.8742 23.0444 21.0018 22.6667 21H1.33334ZM1.33334 14.3333C0.95556 14.3333 0.639116 14.2053 0.384005 13.9493C0.128894 13.6933 0.000893486 13.3769 4.59769e-06 13C-0.000884291 12.6231 0.127116 12.3067 0.384005 12.0507C0.640893 11.7947 0.957338 11.6667 1.33334 11.6667H22.6667C23.0444 11.6667 23.3613 11.7947 23.6173 12.0507C23.8733 12.3067 24.0009 12.6231 24 13C23.9991 13.3769 23.8711 13.6938 23.616 13.9507C23.3609 14.2075 23.0444 14.3351 22.6667 14.3333H1.33334ZM1.33334 7.66666C0.95556 7.66666 0.639116 7.53866 0.384005 7.28266C0.128894 7.02666 0.000893486 6.71022 4.59769e-06 6.33333C-0.000884291 5.95644 0.127116 5.64 0.384005 5.384C0.640893 5.128 0.957338 5 1.33334 5H22.6667C23.0444 5 23.3613 5.128 23.6173 5.384C23.8733 5.64 24.0009 5.95644 24 6.33333C23.9991 6.71022 23.8711 7.02711 23.616 7.284C23.3609 7.54089 23.0444 7.66844 22.6667 7.66666H1.33334Z" fill="#A2A2A2"/>
</svg>
