<svg width="24" height="24" viewBox="0 0 24 24" fill="none" xmlns="http://www.w3.org/2000/svg">
<path d="M10.6751 3.85156H4.70557C4.25322 3.85156 3.81941 4.03126 3.49955 4.35111C3.17969 4.67097 3 5.10479 3 5.55713V17.4961C3 17.9484 3.17969 18.3823 3.49955 18.7021C3.81941 19.022 4.25322 19.2017 4.70557 19.2017H16.6445C17.0969 19.2017 17.5307 19.022 17.8506 18.7021C18.1704 18.3823 18.3501 17.9484 18.3501 17.4961V11.5266" stroke="#A2A2A2" stroke-linecap="round" stroke-linejoin="round"/>
<path d="M16.1118 3.52985C16.451 3.19059 16.9112 3 17.391 3C17.8707 3 18.3309 3.19059 18.6701 3.52985C19.0094 3.86911 19.2 4.32924 19.2 4.80903C19.2 5.28881 19.0094 5.74894 18.6701 6.0882L10.984 13.7752C10.7815 13.9775 10.5313 14.1256 10.2566 14.2059L7.80652 14.9222C7.73314 14.9436 7.65536 14.9449 7.58131 14.9259C7.50726 14.9069 7.43968 14.8684 7.38563 14.8144C7.33158 14.7603 7.29305 14.6927 7.27408 14.6187C7.25511 14.5446 7.25639 14.4668 7.2778 14.3935L7.99414 11.9434C8.07475 11.6689 8.22314 11.419 8.42565 11.2168L16.1118 3.52985Z" stroke="#A2A2A2" stroke-linecap="round" stroke-linejoin="round"/>
</svg>
