<?xml version="1.0" encoding="UTF-8"?>
<svg version="1.1" xmlns="http://www.w3.org/2000/svg" width="1927" height="751">
<path d="M0 0 C181.42204903 0 181.42204903 0 214.35546875 32.3203125 C215.22816406 33.20460937 216.10085938 34.08890625 217 35 C217.73863281 35.73992187 218.47726562 36.47984375 219.23828125 37.2421875 C237.7661909 56.88536938 243.5476996 83.41571484 243.21484375 109.65625 C242.45627055 135.58908776 232.89138513 159.00485748 214.10546875 177.13671875 C200.73706223 188.96738649 184.91336022 195.07812597 168.13964844 200.30761719 C165.71015959 201.09379135 163.34796586 201.99651251 161 203 C161.64324219 203.86238281 162.28648437 204.72476563 162.94921875 205.61328125 C168.24124639 212.74847661 173.38736899 219.96095544 178.375 227.3125 C183.15116286 234.3493422 188.04968295 241.27969982 193.05200195 248.15722656 C198.91757245 256.23371331 204.61733224 264.4239623 210.32861328 272.60986328 C212.87323917 276.24876008 215.4359032 279.87480904 218 283.5 C224.13072013 292.17176946 230.22466445 300.86923125 236.30322266 309.57763672 C237.52174475 311.31723041 238.74606976 313.05276478 239.97412109 314.78564453 C240.61559082 315.6929834 241.25706055 316.60032227 241.91796875 317.53515625 C242.50731201 318.36539307 243.09665527 319.19562988 243.70385742 320.05102539 C245 322 245 322 245 323 C237.27305926 323.42001202 229.54885642 323.73826614 221.81332111 323.93261909 C218.21898165 324.0260032 214.63252233 324.15211376 211.04272461 324.35791016 C187.99553598 325.64450441 187.99553598 325.64450441 181.48330688 321.33428955 C177.31069623 317.20800414 174.59254742 312.43027288 172.06887817 307.17169189 C170.71061811 304.41204871 169.00630468 302.02434212 167.16015625 299.5703125 C166.12619518 298.0895245 165.09360922 296.60777523 164.0625 295.125 C162.88934971 293.44399172 161.71617179 291.76300272 160.54296875 290.08203125 C159.95950684 289.24494629 159.37604492 288.40786133 158.77490234 287.54541016 C155.81304135 283.29776741 152.84424633 279.05498208 149.875 274.8125 C149.00113647 273.56364014 149.00113647 273.56364014 148.10961914 272.28955078 C143.93469027 266.32636949 139.74082565 260.37680767 135.53857422 254.43286133 C131.67626503 248.96647367 127.83554558 243.48519188 124 238 C119.44847183 231.49224026 114.88934888 224.989983 110.3125 218.5 C109.81943359 217.80003906 109.32636719 217.10007812 108.81835938 216.37890625 C108.1290332 215.40244141 108.1290332 215.40244141 107.42578125 214.40625 C106.82890503 213.56030273 106.82890503 213.56030273 106.2199707 212.69726562 C104.84061393 210.77825656 103.41798432 208.89064576 102 207 C84.51 206.67 67.02 206.34 49 206 C49 244.61 49 283.22 49 323 C32.83 323 16.66 323 0 323 C0 216.41 0 109.82 0 0 Z M14 49 C14.83687765 51.80029248 15.70747977 54.58127077 16.6015625 57.36328125 C16.83431885 58.15577271 17.0670752 58.94826416 17.30688477 59.76477051 C18.91064581 64.74291494 18.91064581 64.74291494 23.18579102 67.61083984 C26.40286055 68.23270123 26.40286055 68.23270123 29.80078125 68.55078125 C35.75649724 69.38705395 39.26575293 73.21888139 43.3125 77.375 C48.71922834 85.78546631 48.47165714 94.21383937 48.51171875 103.875 C48.52858634 105.41057757 48.54673935 106.9461415 48.56611633 108.48168945 C48.61339709 112.49944803 48.64334755 116.51715131 48.66955566 120.53509521 C48.69947259 124.64460159 48.74596434 128.75391785 48.79101562 132.86328125 C48.8767989 140.90876027 48.94425439 148.95425702 49 157 C59.13708245 157.04667833 69.27413864 157.08204729 79.41130733 157.10362434 C84.12019123 157.11398878 88.82900071 157.12801095 93.5378418 157.15087891 C98.09607723 157.17287277 102.65424185 157.18462354 107.21252632 157.18975449 C108.93733393 157.19340327 110.6621384 157.20052558 112.38691521 157.21146011 C136.75974579 157.35959847 163.40962579 155.75584835 181.94140625 138.15625 C192.57510357 126.94837896 193.47701059 114.20384521 193.2734375 99.54296875 C192.84020494 86.81837083 187.73063829 75.27825113 178.5625 66.3125 C156.07581105 48.25369189 126.24266458 48.68160469 98.9609375 48.8046875 C96.49801754 48.8084267 94.03509607 48.81126937 91.57217407 48.81326294 C85.15095776 48.82082806 78.72983473 48.84041378 72.30865479 48.8626709 C65.73182435 48.8832844 59.15497856 48.89229752 52.578125 48.90234375 C39.71871065 48.92366769 26.85936033 48.95732038 14 49 Z " fill="#FFFFFF" transform="translate(48,133)"/>
<path d="M0 0 C1.22052472 -0.00012053 2.44104944 -0.00024107 3.69855976 -0.00036526 C7.61261693 0.00037553 11.52662528 0.00796548 15.44067383 0.01586914 C17.87186663 0.01734114 20.30305975 0.01836026 22.73425293 0.0189209 C31.70540851 0.02414383 40.67655728 0.03810509 49.64770508 0.05102539 C79.74989258 0.08196289 79.74989258 0.08196289 110.46020508 0.11352539 C110.46020508 80.30352539 110.46020508 160.49352539 110.46020508 243.11352539 C93.96020508 243.11352539 77.46020508 243.11352539 60.46020508 243.11352539 C60.13020508 236.84352539 59.80020508 230.57352539 59.46020508 224.11352539 C57.33583008 225.45415039 55.21145508 226.79477539 53.02270508 228.17602539 C36.43345901 238.25788764 17.95143267 244.39162807 -1.53979492 245.11352539 C-2.39573242 245.16508789 -3.25166992 245.21665039 -4.13354492 245.26977539 C-35.61065402 246.33080154 -63.94914331 233.91752441 -86.91088867 213.08618164 C-108.58888124 192.77872805 -123.22197654 162.60716577 -124.70385742 132.81518555 C-125.87410788 96.66907457 -117.90701064 64.58032275 -92.80932617 37.51586914 C-92.06038086 36.7230957 -91.31143555 35.93032227 -90.53979492 35.11352539 C-89.84241211 34.35168945 -89.1450293 33.58985352 -88.42651367 32.80493164 C-65.60983865 8.73688504 -32.20423736 -0.10413523 0 0 Z M-59.16479492 74.11352539 C-71.65319193 90.05615987 -76.90328011 108.96913127 -75.53979492 129.11352539 C-72.88733749 149.70662012 -63.87037008 168.38738137 -47.50073242 181.55883789 C-40.69739529 186.59895542 -33.57542822 190.38919387 -25.53979492 193.11352539 C-24.84112305 193.35844727 -24.14245117 193.60336914 -23.42260742 193.85571289 C-8.06827379 198.21706058 9.17786567 194.95298881 23.14770508 188.05102539 C41.18167544 177.68260017 53.17703154 160.80936319 58.63208008 140.92211914 C61.13641912 131.13640782 60.99479616 121.34063143 60.96020508 111.30102539 C60.86664922 83.87684964 60.86664922 83.87684964 69.84301758 74.54321289 C74.5823631 70.3533567 77.92386808 69.1180107 84.08520508 68.61352539 C86.94238929 68.3171363 86.94238929 68.3171363 89.46020508 67.11352539 C92.97862839 61.95162803 94.28179024 56.16617622 95.46020508 50.11352539 C81.11634492 50.0196505 66.77253311 49.94960336 52.4284277 49.9062767 C45.76661424 49.8854736 39.10506378 49.85728965 32.44335938 49.81176758 C26.00480189 49.76804972 19.56644304 49.74433363 13.12774849 49.73401642 C10.68116699 49.72667143 8.23459536 49.71232945 5.78809929 49.69060516 C-19.93127415 49.47147301 -41.32294908 53.77503901 -59.16479492 74.11352539 Z " fill="#FFFFFF" transform="translate(692.539794921875,212.886474609375)"/>
<path d="M0 0 C1.22052472 -0.00012053 2.44104944 -0.00024107 3.69855976 -0.00036526 C7.61261693 0.00037553 11.52662528 0.00796548 15.44067383 0.01586914 C17.87186663 0.01734114 20.30305975 0.01836026 22.73425293 0.0189209 C31.70540851 0.02414383 40.67655728 0.03810509 49.64770508 0.05102539 C79.74989258 0.08196289 79.74989258 0.08196289 110.46020508 0.11352539 C110.46020508 80.30352539 110.46020508 160.49352539 110.46020508 243.11352539 C93.96020508 243.11352539 77.46020508 243.11352539 60.46020508 243.11352539 C60.13020508 236.84352539 59.80020508 230.57352539 59.46020508 224.11352539 C57.33583008 225.45415039 55.21145508 226.79477539 53.02270508 228.17602539 C36.43345901 238.25788764 17.95143267 244.39162807 -1.53979492 245.11352539 C-2.39573242 245.16508789 -3.25166992 245.21665039 -4.13354492 245.26977539 C-35.26463938 246.31913813 -63.69139756 234.19804712 -86.27807617 213.24243164 C-87.02444336 212.53989258 -87.77081055 211.83735352 -88.53979492 211.11352539 C-89.13147461 210.58629883 -89.7231543 210.05907227 -90.33276367 209.51586914 C-101.13611971 199.48234845 -108.63311847 186.4645668 -114.53979492 173.11352539 C-115.0219043 172.02426758 -115.50401367 170.93500977 -116.00073242 169.81274414 C-128.2804089 139.93219804 -128.23458698 104.4524352 -116.51000977 74.43286133 C-104.18022088 44.9580263 -82.1445898 21.50435297 -52.53979492 9.11352539 C-35.25379698 2.37047215 -18.5180788 -0.05987984 0 0 Z M-57.97729492 72.86352539 C-66.30673195 83.44416161 -72.04249204 94.84785248 -74.53979492 108.11352539 C-74.88010742 109.81508789 -74.88010742 109.81508789 -75.22729492 111.55102539 C-77.13110787 133.25449304 -71.82724175 153.74768397 -58.21948242 171.06665039 C-47.1638898 183.75112343 -31.59337861 193.93119624 -14.45092773 195.27758789 C3.73444574 196.22597764 21.01660347 191.92494311 34.96020508 179.67602539 C36.48593931 178.18101064 37.98729554 176.66061023 39.46020508 175.11352539 C40.17692383 174.38133789 40.89364258 173.64915039 41.63208008 172.89477539 C54.20560401 159.47041149 60.72095587 141.9270997 60.76879883 123.61743164 C60.7939525 121.82380851 60.81935061 120.03018879 60.8449707 118.23657227 C60.87366096 115.45459845 60.89772763 112.67268359 60.91650391 109.890625 C61.1178605 84.84496218 61.1178605 84.84496218 68.46020508 76.11352539 C73.80978696 71.34815909 78.73345122 68.17777977 86.08520508 68.05102539 C89.5001633 67.49756438 89.5001633 67.49756438 90.72192383 65.22680664 C91.76297528 62.88540839 92.636506 60.53909152 93.46020508 58.11352539 C93.87270508 57.16477539 94.28520508 56.21602539 94.71020508 55.23852539 C95.62661514 53.01760848 95.62661514 53.01760848 95.46020508 50.11352539 C81.11634492 50.0196505 66.77253311 49.94960336 52.4284277 49.9062767 C45.76661424 49.8854736 39.10506378 49.85728965 32.44335938 49.81176758 C26.00480189 49.76804972 19.56644304 49.74433363 13.12774849 49.73401642 C10.68116699 49.72667143 8.23459536 49.71232945 5.78809929 49.69060516 C-19.08975398 49.47864286 -40.50818588 53.15478699 -57.97729492 72.86352539 Z " fill="#FFFFFF" transform="translate(1071.539794921875,212.886474609375)"/>
<path d="M0 0 C33.09549692 -0.79628263 62.18254365 12.72982223 85.97265625 35.25 C91.8218727 41.23622512 96.90743799 48.11391818 101.47265625 55.125 C102.17575928 56.09300537 102.8788623 57.06101074 103.60327148 58.05834961 C106.54711355 63.30171852 105.96677179 68.99023046 105.86328125 74.83984375 C105.85762146 76.05072159 105.85196167 77.26159943 105.84613037 78.50917053 C105.82381507 82.36068958 105.7736246 86.21126409 105.72265625 90.0625 C105.70258512 92.68032507 105.68433543 95.29816478 105.66796875 97.91601562 C105.62396594 104.3193304 105.55710086 110.7220977 105.47265625 117.125 C104.86514526 117.33781113 104.25763428 117.55062225 103.63171387 117.7698822 C72.22202811 128.77358757 40.82434543 139.80961898 9.45846558 150.93771362 C-1.44626513 154.80649448 -12.35339963 158.66848444 -23.26046753 162.53067017 C-28.41200017 164.35487355 -33.56341956 166.17939664 -38.71484375 168.00390625 C-40.43749943 168.61401528 -42.16015562 169.22412288 -43.8828125 169.83422852 C-45.08550781 170.26018311 -46.28820312 170.6861377 -47.52734375 171.125 C-46.57099277 172.24667411 -45.61379881 173.36762953 -44.65625 174.48828125 C-44.12330322 175.11259033 -43.59035645 175.73689941 -43.04125977 176.38012695 C-33.35544849 187.54356723 -19.19390216 195.19651657 -4.34912109 196.28466797 C15.21717593 197.25513053 31.87136158 192.60432696 46.93359375 179.5859375 C53.17613518 173.53547427 58.51232329 166.87347753 62.47265625 159.125 C70.92944074 163.09413584 78.83988397 167.86602796 86.78515625 172.75 C88.04599543 173.52120708 89.30706192 174.29204265 90.56835938 175.0625 C92.87814127 176.47377444 95.18630607 177.88755939 97.4934082 179.30322266 C100.1449517 180.92461228 102.80484753 182.53055417 105.47265625 184.125 C101.69370674 194.82872611 93.19873739 204.05026899 85.47265625 212.125 C84.86164063 212.79917969 84.250625 213.47335937 83.62109375 214.16796875 C64.78107441 234.25062766 35.59895082 245.83134661 8.47265625 247.125 C7.63863281 247.16625 6.80460937 247.2075 5.9453125 247.25 C-27.26837751 248.04912638 -56.19075546 234.5664326 -80.02734375 212 C-103.79993657 187.46328812 -115.16805063 154.4776563 -114.87695312 120.67675781 C-114.02049354 86.08273467 -100.04840042 55.40294192 -75.52734375 31.125 C-54.88894801 11.56364325 -28.20566844 1.39502533 0 0 Z M-49.83984375 76.9375 C-60.37188203 90.81964609 -64.94519813 106.86438231 -65.52734375 124.125 C-60.63751082 123.34554198 -56.10775501 121.68781479 -51.453125 120.0546875 C-50.10344635 119.58528496 -50.10344635 119.58528496 -48.72650146 119.10639954 C-45.76304685 118.07443771 -42.80139726 117.03740391 -39.83984375 116 C-37.76688006 115.27635013 -35.69388156 114.5528 -33.62084961 113.8293457 C-15.66083058 107.55332592 2.25781716 101.16291105 20.16615295 94.74119568 C28.63679996 91.70490789 37.11630576 88.69373705 45.59765625 85.6875 C46.26884491 85.44953705 46.94003357 85.2115741 47.63156128 84.96640015 C51.24504012 83.68531346 54.8587269 82.40481522 58.47265625 81.125 C49.49291372 65.85229202 34.52526517 55.59979809 17.47265625 51.125 C-9.36564258 45.71191575 -32.52633214 56.6940095 -49.83984375 76.9375 Z " fill="#FFFFFF" transform="translate(430.52734375,210.875)"/>
<path d="M0 0 C0.04995979 4.37417135 0.08598048 8.74818533 0.10986328 13.12255859 C0.11983431 14.60631204 0.13341605 16.09004629 0.15087891 17.57373047 C0.43291025 42.17681761 0.43291025 42.17681761 -8.63671875 51.72265625 C-14.98680548 57.53048838 -21.56619412 59.44539599 -30 60 C-30.19335938 60.73605469 -30.38671875 61.47210938 -30.5859375 62.23046875 C-30.84632812 63.20628906 -31.10671875 64.18210937 -31.375 65.1875 C-31.63023438 66.15042969 -31.88546875 67.11335938 -32.1484375 68.10546875 C-33 71 -33 71 -35 76 C30.01 76 95.02 76 162 76 C162 156.19 162 236.38 162 319 C145.83 319 129.66 319 113 319 C112.90962726 298.9459416 112.83597587 278.89204865 112.79275131 258.83783817 C112.77214594 249.52585104 112.74406414 240.21399962 112.69824219 230.90209961 C112.65831233 222.78370029 112.63255247 214.66539929 112.62364602 206.5469045 C112.61844166 202.25012534 112.60625199 197.95362739 112.57707977 193.65693855 C112.54981333 189.60791918 112.54157751 185.55929534 112.54756927 181.51019287 C112.54647403 180.02878605 112.53858702 178.54736522 112.5231781 177.06603813 C112.42299216 166.93275584 113.53748633 160.14430602 119.1875 151.75 C123.53467707 147.49942686 129.75967704 143.2026923 136.04296875 142.90234375 C136.75066406 142.91394531 137.45835937 142.92554688 138.1875 142.9375 C139.445625 142.958125 140.70375 142.97875 142 143 C142.33 141.35 142.66 139.7 143 138 C144.32 134.37 145.64 130.74 147 127 C98.49 126.67 49.98 126.34 0 126 C0.0825 140.39625 0.165 154.7925 0.25 169.625 C0.27368652 176.40345459 0.27368652 176.40345459 0.29785156 183.31884766 C0.33113618 187.42609451 0.33113618 187.42609451 0.36956787 191.53329468 C0.38403015 193.34013641 0.39094758 195.14704946 0.39154053 196.95394897 C0.40955442 217.22726446 4.27541874 235.90421081 19 251 C25.99701241 257.12605562 33.29963133 261.72928191 42 265 C42.77472656 265.29519531 43.54945312 265.59039062 44.34765625 265.89453125 C52.23236478 268.56664449 59.43611746 268.92951468 68 270 C68 286.17 68 302.34 68 319 C48.21079137 319 48.21079137 319 41 317.375 C40.16952148 317.19606201 39.33904297 317.01712402 38.48339844 316.83276367 C9.96882946 310.38899289 -15.67094658 294.82608005 -31.8125 270.0625 C-46.60233761 246.43818215 -50.51169008 221.0336348 -50.34057617 193.64550781 C-50.33972707 191.7016959 -50.34021054 189.75788302 -50.34190369 187.81407166 C-50.34275405 182.60665709 -50.32528628 177.39945566 -50.30418181 172.19209003 C-50.28525252 166.72424248 -50.28365191 161.25638845 -50.28010559 155.78851318 C-50.27083237 145.46537835 -50.24628347 135.1423404 -50.21605712 124.81924796 C-50.18236486 113.05360454 -50.16599006 101.28795616 -50.15097082 89.5222764 C-50.11972898 65.34813085 -50.06706175 41.17407089 -50 17 C-45.98764515 15.55450138 -41.97515743 14.10937192 -37.96264648 12.66430664 C-36.83228722 12.25707619 -35.70192795 11.84984573 -34.53731537 11.43027496 C-27.05595449 8.73620027 -19.57130226 6.05428729 -12.0625 3.4375 C-11.09505859 3.09654297 -10.12761719 2.75558594 -9.13085938 2.40429688 C-8.21240234 2.08396484 -7.29394531 1.76363281 -6.34765625 1.43359375 C-5.55367432 1.15572021 -4.75969238 0.87784668 -3.94165039 0.59155273 C-2 0 -2 0 0 0 Z " fill="#FFFFFF" transform="translate(1279,137)"/>
<path d="M0 0 C8.67495737 -0.37247844 17.34712594 -0.65583135 26.02836323 -0.82899475 C30.06094468 -0.91216085 34.088021 -1.02465572 38.11743164 -1.20703125 C64.07525985 -2.35144467 64.07525985 -2.35144467 70.48043823 1.4861145 C74.24846316 5.09176814 76.36374522 9.26155356 78.22476196 14.08380127 C79.23117124 16.57139873 80.64738531 18.56275101 82.27734375 20.68359375 C82.72142578 21.31136719 83.16550781 21.93914062 83.62304688 22.5859375 C84.27370117 23.50246094 84.27370117 23.50246094 84.9375 24.4375 C85.94664275 25.86326132 86.95575647 27.28904317 87.96484375 28.71484375 C88.46612793 29.42237793 88.96741211 30.12991211 89.48388672 30.85888672 C91.99343923 34.40297296 94.49640218 37.9517061 97 41.5 C97.99996804 42.91668922 98.99996805 44.33335588 100 45.75 C110 59.91666667 120 74.08333333 130 88.25 C130.49588623 88.95229736 130.99177246 89.65459473 131.50268555 90.37817383 C132.4945276 91.78370119 133.48558636 93.18978165 134.47583008 94.59643555 C137.09422625 98.31363453 139.72871972 102.01802318 142.38671875 105.70703125 C143.21526367 106.86332031 143.21526367 106.86332031 144.06054688 108.04296875 C145.12067788 109.52180696 146.18555971 110.99725457 147.25585938 112.46875 C147.97032227 113.46841797 147.97032227 113.46841797 148.69921875 114.48828125 C149.12033936 115.07134033 149.54145996 115.65439941 149.9753418 116.25512695 C151.14120781 118.24046038 151.75638676 119.70339408 152 122 C151.12646484 123.80493164 151.12646484 123.80493164 149.7109375 125.66015625 C148.92686523 126.71203125 148.92686523 126.71203125 148.12695312 127.78515625 C147.54880859 128.53667969 146.97066406 129.28820312 146.375 130.0625 C145.16181969 131.68712969 143.95094977 133.31348676 142.7421875 134.94140625 C142.11795898 135.77816895 141.49373047 136.61493164 140.85058594 137.47705078 C137.96258246 141.41433679 135.23181525 145.45351695 132.5 149.5 C127.76547222 156.4775735 122.90192436 163.3449734 117.94311523 170.16455078 C112.11643857 178.18877176 106.44521129 186.31947386 100.77490234 194.45458984 C97.81304139 198.70223253 94.84427369 202.94503712 91.875 207.1875 C91.00331177 208.43309692 91.00331177 208.43309692 90.11401367 209.70385742 C84.91831241 217.12430793 79.69706126 224.52653493 74.46777344 231.92333984 C71.97679014 235.44767516 69.48855097 238.97394701 67 242.5 C66.00001278 243.91667568 65.00001278 245.33334236 64 246.75 C63.505 247.45125 63.01 248.1525 62.5 248.875 C58 255.25 58 255.25 56.50048828 257.37426758 C55.49880957 258.79333958 54.4971821 260.21244775 53.49560547 261.6315918 C51.02170505 265.13675274 48.54696634 268.64131515 46.0703125 272.14453125 C40.69494856 279.75009937 35.33744986 287.36776805 30 295 C24.17876317 303.32401819 18.331458 311.62918349 12.46777344 319.92333984 C9.97679014 323.44767516 7.48855097 326.97394701 5 330.5 C4.00001278 331.91667568 3.00001278 333.33334236 2 334.75 C1.505 335.45125 1.01 336.1525 0.5 336.875 C-4 343.25 -4 343.25 -5.49951172 345.37426758 C-6.50119043 346.79333958 -7.5028179 348.21244775 -8.50439453 349.6315918 C-10.97829495 353.13675274 -13.45303366 356.64131515 -15.9296875 360.14453125 C-21.30505235 367.75010067 -26.66230599 375.36793785 -32 383 C-34.33279587 386.3337098 -36.66621916 389.66697967 -39 393 C-39.54221191 393.77472656 -40.08442383 394.54945313 -40.64306641 395.34765625 C-42.19739088 397.56662452 -43.75453006 399.78359023 -45.3125 402 C-45.97668945 402.94939453 -45.97668945 402.94939453 -46.65429688 403.91796875 C-47.53546883 405.16941354 -48.43257235 406.40980795 -49.34603882 407.63787842 C-51.09112654 410.05316663 -51.09112654 410.05316663 -52.70901489 412.99273682 C-57.93401236 421.36421259 -57.93401236 421.36421259 -63.43235779 423.05627441 C-67.59183792 423.38849613 -71.59254636 423.35438918 -75.75390625 423.171875 C-77.26555094 423.14945407 -78.77728367 423.1323911 -80.28904724 423.12042236 C-84.24194017 423.0748991 -88.1894232 422.9573324 -92.14019775 422.82397461 C-96.18191326 422.70054479 -100.22451567 422.64627186 -104.26757812 422.5859375 C-112.18085095 422.45776998 -120.08975015 422.25337313 -128 422 C-123.80031673 414.54567377 -123.80031673 414.54567377 -121.40625 411.1953125 C-120.93960937 410.53853516 -120.47296875 409.88175781 -119.9921875 409.20507812 C-119.49976563 408.51865234 -119.00734375 407.83222656 -118.5 407.125 C-117.42699849 405.61724788 -116.35408427 404.10943363 -115.28125 402.6015625 C-114.73597656 401.8374707 -114.19070313 401.07337891 -113.62890625 400.28613281 C-111.07342639 396.69957505 -108.53722416 393.09948314 -106 389.5 C-104.99751105 388.07934577 -103.99490668 386.65877299 -102.9921875 385.23828125 C-102.49686523 384.53654785 -102.00154297 383.83481445 -101.49121094 383.11181641 C-100.01827179 381.02587606 -98.54441819 378.94058485 -97.0703125 376.85546875 C-91.69494856 369.24990063 -86.33744986 361.63223195 -81 354 C-75.17876317 345.67598181 -69.331458 337.37081651 -63.46777344 329.07666016 C-60.97679014 325.55232484 -58.48855097 322.02605299 -56 318.5 C-55.00001278 317.08332432 -54.00001278 315.66665764 -53 314.25 C-52.505 313.54875 -52.01 312.8475 -51.5 312.125 C1 237.75 1 237.75 2.49951172 235.62573242 C3.50119043 234.20666042 4.5028179 232.78755225 5.50439453 231.3684082 C7.97829495 227.86324726 10.45303366 224.35868485 12.9296875 220.85546875 C18.30505144 213.24990063 23.66255014 205.63223195 29 198 C34.82123683 189.67598181 40.668542 181.37081651 46.53222656 173.07666016 C49.52322097 168.84489063 52.51077281 164.61068895 55.49829102 160.37646484 C58.00760652 156.82047642 60.51912256 153.26608256 63.03515625 149.71484375 C69.77263324 140.1989699 76.41928578 130.62494225 83 121 C80.06521131 115.62891543 76.75287912 110.73624634 73.125 105.8125 C68.32602186 99.23485569 63.59565311 92.61565176 58.9375 85.9375 C58.35323242 85.10025391 57.76896484 84.26300781 57.16699219 83.40039062 C56.00465772 81.73474401 54.84238462 80.06905458 53.68017578 78.40332031 C51.08994234 74.69825521 48.48384623 71.00447372 45.875 67.3125 C45.38765381 66.622771 44.90030762 65.93304199 44.39819336 65.22241211 C43.42149396 63.84041899 42.44468782 62.45850131 41.46777344 61.07666016 C38.97679014 57.55232484 36.48855097 54.02605299 34 50.5 C33.00001278 49.08332432 32.00001278 47.66665764 31 46.25 C29 43.41666667 27 40.58333333 25 37.75 C24.50435547 37.04786377 24.00871094 36.34572754 23.49804688 35.62231445 C22.50445491 34.21467187 21.51096427 32.80695776 20.51757812 31.39916992 C17.9203886 27.71882267 15.32111661 24.03997001 12.71875 20.36328125 C12.17992187 19.60144531 11.64109375 18.83960938 11.0859375 18.0546875 C10.06055193 16.60500446 9.03455218 15.15575556 8.0078125 13.70703125 C6.6657612 11.80888135 5.3307899 9.90605783 4 8 C3.59394531 7.4229834 3.18789062 6.8459668 2.76953125 6.25146484 C0 2.23442982 0 2.23442982 0 0 Z " fill="#062496" transform="translate(1460,214)"/>
<path d="M0 0 C1.53405416 0.02428827 3.06821011 0.04277369 4.60240173 0.05574036 C8.61486889 0.1050688 12.62108504 0.23243292 16.63110352 0.37689209 C20.73302623 0.51058846 24.83597349 0.56939871 28.93945312 0.63476562 C36.97159962 0.77363259 44.9986915 0.99506828 53.02734375 1.26953125 C51.92603234 3.01324874 50.82299194 4.75587428 49.71923828 6.49804688 C49.1051712 7.46859009 48.49110413 8.4391333 47.85842896 9.43908691 C45.34584971 13.32296719 42.64741764 17.04827723 39.90234375 20.76953125 C35.33075327 27.02958372 30.8779333 33.35400945 26.52734375 39.76953125 C21.79270675 46.74385988 16.93295002 53.610576 11.97485352 60.42749023 C6.11246215 68.49938304 0.41570632 76.68495988 -5.29248047 84.86621094 C-7.88271391 88.57127604 -10.48881002 92.26505753 -13.09765625 95.95703125 C-13.58500244 96.64676025 -14.07234863 97.33648926 -14.57446289 98.04711914 C-15.55116229 99.42911226 -16.52796843 100.81102994 -17.50488281 102.19287109 C-19.99586611 105.71720641 -22.48410528 109.24347826 -24.97265625 112.76953125 C-25.97264347 114.18620693 -26.97264347 115.60287361 -27.97265625 117.01953125 C-28.71515625 118.07140625 -28.71515625 118.07140625 -29.47265625 119.14453125 C-33.97265625 125.51953125 -33.97265625 125.51953125 -35.47216797 127.64379883 C-36.47384668 129.06287083 -37.47547415 130.481979 -38.47705078 131.90112305 C-40.9509512 135.40628399 -43.42568991 138.9108464 -45.90234375 142.4140625 C-51.27770769 150.01963062 -56.63520639 157.6372993 -61.97265625 165.26953125 C-67.79389308 173.59354944 -73.64119825 181.89871474 -79.50488281 190.19287109 C-81.99586611 193.71720641 -84.48410528 197.24347826 -86.97265625 200.76953125 C-87.97264347 202.18620693 -88.97264347 203.60287361 -89.97265625 205.01953125 C-90.46765625 205.72078125 -90.96265625 206.42203125 -91.47265625 207.14453125 C-104.97265625 226.26953125 -118.47265625 245.39453125 -131.97265625 264.51953125 C-132.46822021 265.22158691 -132.96378418 265.92364258 -133.47436523 266.64697266 C-134.46864303 268.05551937 -135.46294618 269.46404818 -136.45727539 270.87255859 C-139.04503941 274.53830995 -141.63228675 278.20442447 -144.21875 281.87109375 C-144.75306641 282.62841797 -145.28738281 283.38574219 -145.83789062 284.16601562 C-146.8510768 285.6020969 -147.86410948 287.0382865 -148.87695312 288.47460938 C-151.89391001 292.75037998 -154.92737887 297.01388046 -157.97265625 301.26953125 C-156.16263056 305.30649866 -153.6126187 308.83933086 -151.09765625 312.45703125 C-150.36953735 313.5099939 -150.36953735 313.5099939 -149.62670898 314.58422852 C-144.62749875 321.79855224 -139.56284476 328.96664866 -134.48876953 336.12841797 C-131.97921702 339.67250421 -129.47625407 343.22123735 -126.97265625 346.76953125 C-125.97268821 348.18622047 -124.9726882 349.60288713 -123.97265625 351.01953125 C-121.97265625 353.85286458 -119.97265625 356.68619792 -117.97265625 359.51953125 C-117.47668945 360.22207031 -116.98072266 360.92460937 -116.46972656 361.6484375 C-115.47918485 363.05186646 -114.48894573 364.45550905 -113.49902344 365.859375 C-110.85687463 369.60547113 -108.20814471 373.34670905 -105.55078125 377.08203125 C-104.99390625 377.86642578 -104.43703125 378.65082031 -103.86328125 379.45898438 C-102.78706083 380.97466146 -101.70899711 382.48903173 -100.62890625 384.00195312 C-96.97265625 389.15706905 -96.97265625 389.15706905 -96.97265625 390.26953125 C-105.7001392 390.50186935 -114.42654854 390.67922461 -123.15645599 390.78765297 C-127.21088851 390.83971212 -131.2631966 390.9102327 -135.31640625 391.02392578 C-139.23290129 391.1330886 -143.14736232 391.19247217 -147.06526184 391.21830368 C-148.554998 391.23669427 -150.04463027 391.27261296 -151.53349304 391.32683182 C-163.17340302 391.73361301 -163.17340302 391.73361301 -167.6227417 388.1131134 C-169.66786354 385.58734421 -171.34319281 383.07680124 -172.97265625 380.26953125 C-173.88352663 378.96878652 -174.80300533 377.67393348 -175.73828125 376.390625 C-176.57003671 375.16521678 -177.39811335 373.93730417 -178.22265625 372.70703125 C-179.16572536 371.31837069 -180.10976976 369.93037207 -181.0546875 368.54296875 C-181.53373535 367.83881836 -182.0127832 367.13466797 -182.50634766 366.40917969 C-184.93941419 362.85883086 -187.42333041 359.34484482 -189.91015625 355.83203125 C-190.41015137 355.12530273 -190.91014648 354.41857422 -191.42529297 353.69042969 C-192.43833234 352.25922276 -193.45167855 350.82823298 -194.46533203 349.39746094 C-196.92903509 345.91938581 -199.38885207 342.43857079 -201.84765625 338.95703125 C-202.33234375 338.27084717 -202.81703125 337.58466309 -203.31640625 336.87768555 C-207.95210698 330.30918204 -212.56162292 323.72241075 -217.16552734 317.1315918 C-217.99624756 315.94303589 -217.99624756 315.94303589 -218.84375 314.73046875 C-219.3682373 313.97088867 -219.89272461 313.21130859 -220.43310547 312.42871094 C-221.43485072 311.02378943 -222.47709569 309.64660972 -223.56298828 308.30566406 C-225.0078125 306.49609375 -225.0078125 306.49609375 -226.97265625 303.26953125 C-225.9603458 299.74780663 -224.2454818 296.97290318 -222.13671875 294.00390625 C-221.29149658 292.80568237 -221.29149658 292.80568237 -220.42919922 291.58325195 C-219.82479004 290.73722412 -219.22038086 289.89119629 -218.59765625 289.01953125 C-217.97133301 288.13418701 -217.34500977 287.24884277 -216.69970703 286.33666992 C-215.41192868 284.5170681 -214.12204742 282.69895275 -212.83007812 280.88232422 C-210.64843885 277.81346202 -208.4789687 274.73616592 -206.31054688 271.65795898 C-203.38317709 267.5038493 -200.44757832 263.35554887 -197.51367188 259.20605469 C-191.6470993 250.90747839 -185.79691643 242.59787264 -179.97265625 234.26953125 C-174.15141942 225.94551306 -168.30411425 217.64034776 -162.44042969 209.34619141 C-159.94944639 205.82185609 -157.46120722 202.29558424 -154.97265625 198.76953125 C-153.97266903 197.35285557 -152.97266903 195.93618889 -151.97265625 194.51953125 C-151.47765625 193.81828125 -150.98265625 193.11703125 -150.47265625 192.39453125 C-145.97265625 186.01953125 -145.97265625 186.01953125 -144.47314453 183.89526367 C-143.47146582 182.47619167 -142.46983835 181.0570835 -141.46826172 179.63793945 C-138.9943613 176.13277851 -136.51962259 172.6282161 -134.04296875 169.125 C-128.66760481 161.51943188 -123.31010611 153.9017632 -117.97265625 146.26953125 C-112.15141942 137.94551306 -106.30411425 129.64034776 -100.44042969 121.34619141 C-97.94944639 117.82185609 -95.46120722 114.29558424 -92.97265625 110.76953125 C-91.97266903 109.35285557 -90.97266903 107.93618889 -89.97265625 106.51953125 C-89.23015625 105.46765625 -89.23015625 105.46765625 -88.47265625 104.39453125 C-83.97265625 98.01953125 -83.97265625 98.01953125 -82.47314453 95.89526367 C-81.47146582 94.47619167 -80.46983835 93.0570835 -79.46826172 91.63793945 C-76.9943613 88.13277851 -74.51962259 84.6282161 -72.04296875 81.125 C-66.66760481 73.51943188 -61.31010611 65.9017632 -55.97265625 58.26953125 C-49.15637343 48.52265721 -42.30207202 38.80305681 -35.43310547 29.09326172 C-34.39086566 27.61988542 -33.3488751 26.14633277 -32.30712891 24.67260742 C-31.3451244 23.31169665 -30.38262401 21.95113615 -29.41943359 20.59106445 C-28.96906738 19.95386475 -28.51870117 19.31666504 -28.0546875 18.66015625 C-27.59420013 18.03396393 -27.13371277 17.40777161 -26.65927124 16.76260376 C-24.86624537 14.20879859 -24.86624537 14.20879859 -23.26446533 11.04164124 C-17.31386789 0.65378819 -11.68455252 -0.54687535 0 0 Z " fill="#0A27BF" transform="translate(1825.97265625,109.73046875)"/>
<path d="M0 0 C16.17 0 32.34 0 49 0 C49 8.25 49 16.5 49 25 C37.78 25.33 26.56 25.66 15 26 C17.475 32.435 17.475 32.435 20 39 C20 39.99 20 40.98 20 42 C21.0725 41.87625 22.145 41.7525 23.25 41.625 C30.42071377 41.66320984 37.18590081 45.26393475 42.25390625 50.19140625 C48.31564632 57.67050517 49.29553895 64.20111945 49.24050903 73.59213257 C49.24221788 74.65898273 49.24392673 75.72583289 49.24568737 76.82501185 C49.24898138 80.39952286 49.23797982 83.97384613 49.22705078 87.54833984 C49.22648665 90.11076859 49.22680327 92.67319766 49.22793579 95.23562622 C49.22839122 100.7522152 49.22271867 106.26874373 49.21146011 111.78532028 C49.19519285 119.76131035 49.18999585 127.73727756 49.18748413 135.71328242 C49.18310895 148.65440829 49.16980466 161.59550892 49.15087891 174.53662109 C49.13251552 187.10628127 49.11836126 199.67593458 49.10986328 212.24560547 C49.10907511 213.40816923 49.10907511 213.40816923 49.10827102 214.59421913 C49.10566091 218.48245381 49.1031335 222.37068853 49.10064721 226.25892329 C49.07992023 258.50597123 49.04305344 290.75297222 49 323 C32.83 323 16.66 323 0 323 C0 216.41 0 109.82 0 0 Z " fill="#FFFFFF" transform="translate(850,133)"/>
<path d="M0 0 C4.62 0 9.24 0 14 0 C17.24279998 3.55596758 18.71872803 5.78515017 20.6875 10 C21.83582477 12.19611658 22.98840795 14.3900101 24.14453125 16.58203125 C24.59348755 17.46082695 24.59348755 17.46082695 25.05151367 18.3573761 C28.59765451 25.29062063 32.61582958 31.93569177 36.62661743 38.60717773 C37.84177603 40.6321351 39.04878283 42.66169345 40.25268555 44.69335938 C45.08666058 52.84701696 50.00556846 60.94355704 55 69 C57.57703377 65.88034191 59.83773521 62.78713756 61.85546875 59.28125 C62.38712646 58.36303467 62.91878418 57.44481934 63.46655273 56.4987793 C64.03446533 55.50918213 64.60237793 54.51958496 65.1875 53.5 C66.43194033 51.35005702 67.67674897 49.20032719 68.921875 47.05078125 C69.57994141 45.91205566 70.23800781 44.77333008 70.91601562 43.60009766 C74.20467748 37.91398961 77.51739693 32.24194605 80.83511353 26.57275391 C82.25162595 24.15029532 83.66364919 21.72522801 85.07575989 19.30020142 C86.07165683 17.6051731 87.0881538 15.92230226 88.10498047 14.23974609 C90.03525888 11.03516197 90.03525888 11.03516197 91.60205078 7.70166016 C93.19140625 4.64453125 93.19140625 4.64453125 97 0 C101.29 0 105.58 0 110 0 C110 33.99 110 67.98 110 103 C105.05 103 100.1 103 95 103 C94.67 79.9 94.34 56.8 94 33 C89.7615625 40.1465625 89.7615625 40.1465625 85.4375 47.4375 C79.09982123 58.11403003 72.75364076 68.78538305 66.375 79.4375 C65.74263428 80.49573975 65.11026855 81.55397949 64.45874023 82.64428711 C63.88196533 83.6060083 63.30519043 84.56772949 62.7109375 85.55859375 C61.95756104 86.81627563 61.95756104 86.81627563 61.18896484 88.09936523 C60 90 60 90 59 91 C55.99815483 91.35086 53.90095918 91.58480572 51 91 C48.9796497 88.87312064 47.94597479 87.43439736 46.625 84.9140625 C46.2525415 84.26545258 45.88008301 83.61684265 45.49633789 82.94857788 C44.30198303 80.85556491 43.15021208 78.7425351 42 76.625 C33.71349318 61.8196293 24.91034963 47.47931816 16 33 C15.67 56.1 15.34 79.2 15 103 C10.05 103 5.1 103 0 103 C0 69.01 0 35.02 0 0 Z " fill="#FFFFFF" transform="translate(1688,536)"/>
<path d="M0 0 C58.74683544 0 58.74683544 0 71 8 C71.886875 8.556875 72.77375 9.11375 73.6875 9.6875 C81.23566078 17.23566078 83.94719382 26.03358004 84.3125 36.4375 C84.0894628 45.84442211 81.11543519 53.81504924 75 61 C70.85408577 64.86951995 67.59284199 66.98280582 62 68 C68.74691453 77.97405122 75.52873626 87.90052126 82.74731445 97.54125977 C86 101.90274615 86 101.90274615 86 103 C79.95718423 104.23322771 73.91118365 105.22586806 68 103 C61.20141921 97.20495193 56.47654508 88.09776955 52.61254883 80.14404297 C50.96956461 77.16707981 49.62953116 75.1703456 47 73 C41.63110144 71.63816632 36.60610422 71.73653199 31.0625 71.875 C26.091875 71.91625 21.12125 71.9575 16 72 C16 82.23 16 92.46 16 103 C10.72 103 5.44 103 0 103 C0 69.01 0 35.02 0 0 Z M16 14 C16 28.85 16 43.7 16 59 C22.80625 59.0928125 22.80625 59.0928125 29.75 59.1875 C31.15475586 59.21481201 32.55951172 59.24212402 34.00683594 59.27026367 C43.79024663 59.33414019 53.62017475 59.04377642 61.5625 52.75 C66.56743914 47.74506086 68.14690086 43.07210359 68.4375 36.0625 C68.23260049 29.49751975 66.96744174 24.88376117 62.19921875 20.25 C55.77361852 15.05961224 49.29309712 13.68077286 41.09765625 13.8046875 C40.45598511 13.80670166 39.81431396 13.80871582 39.15319824 13.81079102 C36.78955791 13.82114007 34.42602066 13.8490613 32.0625 13.875 C24.1115625 13.936875 24.1115625 13.936875 16 14 Z " fill="#FFFFFF" transform="translate(1582,536)"/>
<path d="M0 0 C0.82814209 0.00491455 1.65628418 0.0098291 2.50952148 0.01489258 C17.20034963 0.29396822 29.13440288 5.08366006 39.6875 15.3125 C38.27905282 18.52774305 36.58405214 20.63433868 34.0625 23.0625 C33.11503906 23.98289062 33.11503906 23.98289062 32.1484375 24.921875 C31.66632813 25.38078125 31.18421875 25.8396875 30.6875 26.3125 C27.73096785 24.92703987 25.20216804 23.28900284 22.5625 21.375 C12.86633291 14.92665473 2.3771399 13.9326001 -9.04296875 15.74609375 C-19.12270569 18.32612181 -27.43468851 23.96626286 -32.94140625 32.80078125 C-38.28849077 42.59615261 -38.86900432 53.65968711 -36.65625 64.5390625 C-33.71321489 73.54576478 -27.84239402 81.88476875 -19.3125 86.3125 C-8.68683932 91.26679578 3.47631508 92.38827949 14.6875 88.6875 C18.9705636 86.89698619 22.44291273 84.53023922 25.93359375 81.484375 C27.6875 80.3125 27.6875 80.3125 31.6875 80.3125 C33.828125 82.0625 33.828125 82.0625 35.9375 84.3125 C36.64390625 85.055 37.3503125 85.7975 38.078125 86.5625 C38.87476563 87.42875 38.87476563 87.42875 39.6875 88.3125 C37.08684215 94.89495602 29.87245579 98.85497786 23.69140625 101.68359375 C8.83222099 107.18774243 -9.70903802 108.01437207 -24.3125 101.3125 C-38.62011554 94.097895 -47.7260238 83.49534302 -52.99609375 68.34765625 C-56.93064436 54.2104089 -54.66680156 38.59979183 -47.88671875 25.79296875 C-40.04675299 13.43967283 -28.26507073 4.66889284 -14.046875 1.19140625 C-9.34354928 0.20736496 -4.79535187 -0.03401658 0 0 Z " fill="#FFFFFF" transform="translate(1524.3125,534.6875)"/>
<path d="M0 0 C6.19986626 4.18395882 10.52045025 9.51928584 12 17 C12.86860297 26.04201452 10.99429284 32.12041167 6.3125 39.75 C0.73744036 45.17438236 -5.57946906 47.65995916 -13.25 48.25 C-21.9406477 47.67062349 -28.20161688 44.5330199 -34 38 C-38.40695924 31.86082557 -39.69848699 24.85264646 -38.62890625 17.421875 C-36.85970975 10.25717862 -33.12026323 4.96762174 -27.12890625 0.65234375 C-18.78992912 -4.35104253 -8.56543385 -4.73680957 0 0 Z " fill="#FFFFFF" transform="translate(1429,151)"/>
</svg>
